<svg id="Capa_1" enable-background="new 0 0 512 512" height="512" viewBox="0 0 512 512" width="512" xmlns="http://www.w3.org/2000/svg"><g><path d="m122.443 293.376v-195.342s6.961-49.989 46.917-17.265c0 0 6.876-56.208 54.941-29.368 0 0-3.476-41.434 25.969-41.434s25.295 42.105 25.295 42.105 51.263-25.498 51.263 24.827 0 117.423 0 117.423 18.915-37.806 48.872-22.223c10.382 5.4 13.78 22.21 13.78 22.21s7.499 187.271-69.504 220.459v89.383h-148.15v-99.81c-.001 0-49.383-26.671-49.383-110.965z" fill="#ffdcd4"/><g><path d="m373.169 159.337c-3.854-1.242-7.832-1.872-11.823-1.872-9.17 0-17.779 3.302-24.499 8.891v-97.871c0-18.322-14.674-34.031-32.966-35.238-6.328-.418-12.715.891-18.362 3.777-.763-14.749-9.409-29.257-23.462-34.822-13.807-5.467-29.174-.368-38.238 11.058-5.352 6.747-8.357 15.187-8.801 23.764-16.087-8.22-36.243-2.583-45.866 12.627-2.461 3.889-4.148 8.256-4.934 12.792-8.666-4.566-19.092-5.316-28.327-2.051-8.727 3.085-16.073 9.683-20.069 18.033-2.246 4.694-3.4 9.878-3.4 15.079v211.759c0 40.992 17.947 79.111 49.414 105.353v46.266c0 5.534 4.486 10.021 10.021 10.021s10.021-4.486 10.021-10.021v-51.063c0-3.096-1.431-6.018-3.876-7.916-28.94-22.464-45.538-56.23-45.538-92.64v-211.759c0-9.06 8.31-16.091 17.222-14.969 7.454.939 13.336 7.419 13.336 14.969v123.027c0 5.796 5.006 11.257 10.886 11.151 5.384-.098 9.824-4.636 9.824-10.017v-149.18c0-8.314 6.96-15.274 15.274-15.274s15.274 6.96 15.274 15.274v149.18c0 5.743 4.774 10.004 10.358 10.004s10.358-4.261 10.358-10.004v-178.35c0-7.09 3.264-15.009 10.018-18.149 6.37-2.962 13.208.133 16.921 5.687 2.443 3.655 3.609 8.087 3.609 12.463v178.35c0 5.743 4.774 10.004 10.358 10.004 5.583 0 10.358-4.261 10.358-10.004v-149.181c0-8.314 6.96-15.274 15.274-15.274s15.274 6.96 15.274 15.274v144.173c0 .035.005.069.005.105l-9.153 32.56c-11.063 2.684-33.192 10.426-48.958 31.362-3.329 4.421-2.444 10.704 1.977 14.033 4.422 3.33 10.704 2.444 14.033-1.977 16.067-21.336 41.872-24.795 42.09-24.822 4.035-.471 7.385-3.331 8.485-7.241l18.555-66.009c2.18-7.749 9.379-13.162 17.506-13.162 10.45 0 19.041 9.068 18.116 19.529l-10.78 122.608c-6.77 47.048-42.074 75.226-53.69 84.497-2.87 2.295-5.039 4.965-5.039 8.847v78.97h-90.526c-5.534 0-10.021 4.486-10.021 10.021 0 5.534 4.486 10.021 10.021 10.021h100.547c5.534 0 10.021-4.486 10.021-10.021v-84.179c15.135-12.229 51.219-43.649 58.568-95.606.025-.175.045-.35.06-.526l10.803-122.872c1.566-17.73-9.228-33.956-26.259-39.459z"/><circle cx="171.825" cy="501.979" r="10"/></g></g></svg>